<?xml version="1.0" standalone="no"?> <!DOCTYPE svg PUBLIC "-//W3C//DTD SVG 1.0//EN" "http://www.w3.org/TR/2001/REC-SVG-20010904/DTD/svg10.dtd" > <svg xmlns="http://www.w3.org/2000/svg" width="100%" height="100%">
<defs >
<font horiz-adv-x="1113" ><font-face
    font-family="Corbel"
    units-per-em="2048"
    panose-1="2 11 7 3 2 2 4 2 2 4"
    ascent="1523"
    descent="-525"
    alphabetic="0" />
<missing-glyph horiz-adv-x="948" d="M948 1338V0H0V1338H948ZM855 91V1247H93V91H855ZM363 224V349H485V224H363ZM715 896Q715 861 706 834T681 785T645 744T603 708Q579 689 555 670T512 628T481 577T469 511V500H381Q380 507 380 515T379 528Q379 578 394 613T431
675T482 723T535 764Q567 789 589 818T611 891Q611 948 567 979T449 1011Q399 1011 353 999T271 971V1055Q306 1074 355 1085T453 1097Q514 1097 562 1083T645 1042T697 978T715 896Z" />
<glyph unicode=" " glyph-name="space" horiz-adv-x="422" />
<glyph unicode="!" glyph-name="exclam" horiz-adv-x="599" d="M432 1338L408 480H191L167 1338H432ZM165 267H434V0H165V267Z" />
<glyph unicode="&quot;" glyph-name="quotedbl" horiz-adv-x="808" d="M321 787H110V1338H321V787ZM698 787H487V1338H698V787Z" />
<glyph unicode="#" glyph-name="numbersign" horiz-adv-x="1361" d="M435 981L508 1338H698L625 981H865L938 1338H1128L1055 981H1251V799H1017L964 539H1169V357H926L853 0H663L736 357H496L423 0H233L306 357H110V539H344L397 799H192V981H435ZM534 539H774L827
799H587L534 539Z" />
<glyph unicode="$" glyph-name="dollar" horiz-adv-x="1080" d="M462 28Q364 31 278 45T134 86V282Q173 268 210 258T286 240T368 228T462 222V441Q399 450 337 465T226 512T145 594T114 726Q114 792 138 843T207 932T316 993T462 1025V1128H621V1028Q694 1024
769 1012T908 977V779Q754 829 621 835V613Q684 603 745 587T855 539T934 456T965 325Q965 197 876 124T621 33V-70H462V28ZM333 736Q333 694 365 672T462 638V830Q389 822 361 798T333 736ZM745 321Q745 363 715 384T621 417V229Q745 245 745 321Z" />
<glyph unicode="%" glyph-name="percent" horiz-adv-x="1694" d="M1431 419Q1431 475 1426 522T1409 603T1378 656T1328 676Q1298 676 1279 657T1247 603T1230 522T1225 419Q1225 364 1230 317T1247 235T1278 182T1328 162Q1358 162 1377 181T1409 235T1426 316T1431
419ZM1007 419Q1007 529 1030 610T1096 746T1198 826T1328 853Q1399 853 1458 827T1559 746T1625 611T1649 419Q1649 310 1626 229T1560 93T1458 12T1328 -15Q1257 -15 1198 12T1097 93T1031 228T1007 419ZM1399 1273L423 -35L293 65L1269 1373L1399 1273ZM469
929Q469 985 464 1032T447 1113T416 1166T366 1186Q336 1186 317 1167T285 1113T268 1032T263 929Q263 874 268 827T285 745T316 692T366 672Q396 672 415 691T447 745T464 826T469 929ZM45 929Q45 1039 68 1120T134 1256T236 1336T366 1363Q437 1363 496 1337T597
1256T663 1121T687 929Q687 820 664 739T598 603T496 522T366 495Q295 495 236 522T135 603T69 738T45 929Z" />
<glyph unicode="&amp;" glyph-name="ampersand" horiz-adv-x="1417" d="M1268 714Q1254 577 1212 467T1105 271Q1156 219 1201 172T1281 89T1339 29T1367 0H1029Q1012 22 991 45T935 107Q838 40 727 8T502 -25Q410 -25 334 0T204 72T120 185T90 333Q90 402 111
457T169 558T252 639T350 707Q312 744 280 781T223 858T186 942T172 1039Q172 1115 199 1175T277 1277T401 1341T568 1363Q661 1363 735 1343T860 1284T940 1186T968 1050Q968 982 947 928T890 829T807 749T709 681Q758 631 821 566T954 429Q987 487 1008 558T1037
714H1268ZM524 169Q593 169 662 190T795 255Q757 294 718 334T641 413T567 488T498 558Q463 536 433 512T382 461T348 403T335 336Q335 294 350 263T390 211T450 180T524 169ZM417 1044Q417 1014 426 988T454 937T499 885T559 828Q594 850 624 873T676 922T710
977T723 1041Q723 1099 683 1134T570 1169Q533 1169 505 1159T457 1132T427 1093T417 1044Z" />
<glyph unicode="&apos;" glyph-name="quotesingle" horiz-adv-x="431" d="M321 787H110V1338H321V787Z" />
<glyph unicode="(" glyph-name="parenleft" horiz-adv-x="626" d="M100 519Q100 632 118 731T165 917T233 1076T311 1206T389 1306T458 1374L586 1256Q532 1197 483 1124T397 961T337 761T315 519Q315 387 337 278T396 78T483 -86T586 -218L458 -336Q428 -310
390 -268T311 -169T233 -39T166 120T118 307T100 519Z" />
<glyph unicode=")" glyph-name="parenright" horiz-adv-x="626" d="M526 519Q526 407 508 307T461 121T393 -38T315 -168T237 -268T168 -336L40 -218Q94 -159 143 -86T229 77T289 277T311 519Q311 651 289 760T230 960T143 1124T40 1256L168 1374Q198 1348 236
1306T315 1207T393 1077T460 918T508 732T526 519Z" />
<glyph unicode="*" glyph-name="asterisk" horiz-adv-x="1081" d="M593 962L751 1062L922 1121L981 941L810 883L622 870L621 865L765 745L879 588L726 476L613 634L544 809H537L468 634L355 476L202 588L316 745L460 865L459 870L271 883L100 941L159 1121L330
1062L488 962L492 966L446 1148V1338H635V1148L589 966L593 962Z" />
<glyph unicode="+" glyph-name="plus" horiz-adv-x="1080" d="M114 627H440V971H640V627H966V436H640V93H440V436H114V627Z" />
<glyph unicode="," glyph-name="comma" horiz-adv-x="649" d="M202 267H479L263 -411H10L202 267Z" />
<glyph unicode="-" glyph-name="hyphen" horiz-adv-x="681" d="M120 608H561V393H120V608Z" />
<glyph unicode="." glyph-name="period" horiz-adv-x="599" d="M165 267H434V0H165V267Z" />
<glyph unicode="/" glyph-name="slash" horiz-adv-x="603" d="M8 -249L388 1338H596L216 -249H8Z" />
<glyph unicode="0" glyph-name="zero" horiz-adv-x="1055" d="M745 484Q745 636 689 717T528 799Q422 799 366 718T310 484Q310 332 366 251T528 169Q633 169 689 250T745 484ZM990 484Q990 375 961 282T873 121T729 14T528 -25Q416 -25 330 14T185 121T96 282T65
484Q65 593 95 686T185 847T330 954T528 993Q642 993 728 955T873 848T960 686T990 484Z" />
<glyph unicode="1" glyph-name="one" horiz-adv-x="1013" d="M427 201V717L90 621V831L482 969H664V201H946V0H110V201H427Z" />
<glyph unicode="2" glyph-name="two" horiz-adv-x="1022" d="M857 673Q857 601 828 539T747 420T624 309T470 197V193Q608 201 675 201H937V0H90V145Q195 217 290 286T456 419T570 543T612 661Q612 696 599 720T563 759T508 782T439 789Q367 789 280 766T100 698V899Q132
916 172 932T260 962T360 984T471 993Q556 993 627 972T749 911T828 811T857 673Z" />
<glyph unicode="3" glyph-name="three" horiz-adv-x="999" d="M859 627Q859 526 815 447T675 323V319Q722 306 761 279T828 213T873 125T889 15Q889 -83 858 -162T762 -297T602 -383T376 -413Q340 -413 300 -410T221 -399T144 -380T75 -354V-148Q131 -174 204
-192T364 -210Q442 -210 495 -192T582 -144T629 -73T644 13Q644 79 617 122T538 188Q512 199 479 203T398 208H242V409H348Q394 409 430 413T495 430Q552 453 583 500T614 620Q614 667 596 699T547 752T474 781T391 790Q307 790 236 774T96 729V934Q161 959 239
976T422 993Q524 993 605 965T743 887T829 771T859 627Z" />
<glyph unicode="4" glyph-name="four" horiz-adv-x="1081" d="M318 195L320 192Q401 201 511 201H615V449H852V201H1026V0H852V-387H615V0H65V169L430 969H672L318 195Z" />
<glyph unicode="5" glyph-name="five" horiz-adv-x="1002" d="M385 445Q413 446 434 446Q551 446 640 417T788 333T877 202T907 32Q907 -62 873 -143T771 -285T606 -379T382 -413Q299 -413 225 -397T90 -356V-149Q166 -181 234 -195T365 -210Q445 -210 501 -192T593
-143T645 -68T662 27Q662 82 644 124T587 196T486 241T340 256Q293 256 240 252T124 237L227 969H906V753H429L385 445Z" />
<glyph unicode="6" glyph-name="six" horiz-adv-x="1127" d="M581 178Q625 178 662 191T728 233T771 306T787 410Q787 474 770 516T724 582T657 617T572 627Q514 627 454 614T340 573Q340 468 358 393T408 271T484 201T581 178ZM601 830Q692 830 771 804T908 725T999
598T1032 423Q1032 324 1002 242T913 101T769 8T576 -25Q462 -25 373 17T222 139T128 329T95 580Q95 738 134 880T249 1129T438 1300T697 1363Q780 1363 850 1346T959 1310V1106Q899 1129 838 1144T715 1160Q653 1160 596 1139T491 1071T407 951T353 776H357Q469
828 601 830Z" />
<glyph unicode="7" glyph-name="seven" horiz-adv-x="1000" d="M59 753V969H924V807L358 -387H115L655 753H59Z" />
<glyph unicode="8" glyph-name="eight" horiz-adv-x="1138" d="M569 781Q663 802 714 855T765 990Q765 1035 750 1068T708 1124T646 1158T569 1169Q529 1169 493 1158T431 1125T389 1069T373 990Q373 909 424 856T569 781ZM569 169Q617 169 658 183T729 223T776
287T793 371Q793 422 777 461T730 527T659 571T569 594Q520 588 479 572T408 528T362 461T345 371Q345 325 362 288T409 224T480 183T569 169ZM569 -25Q464 -25 378 4T230 84T134 207T100 363Q100 429 117 482T165 576T237 646T328 692V696Q235 737 182 810T128
987Q128 1075 162 1145T257 1263T397 1337T569 1363Q660 1363 740 1338T881 1264T975 1145T1010 987Q1010 884 957 811T810 696V692Q859 675 900 646T972 576T1020 482T1038 363Q1038 278 1004 207T909 85T761 4T569 -25Z" />
<glyph unicode="9" glyph-name="nine" horiz-adv-x="1128" d="M399 -210Q561 -210 657 -114T780 191H776Q725 165 658 152T519 138Q430 138 353 164T218 241T128 369T95 546Q95 641 125 722T212 864T354 958T546 993Q664 993 754 951T907 828T1001 629T1033 357Q1033
255 1019 158T973 -24T893 -181T776 -304T618 -384T418 -413Q333 -413 257 -397T122 -352V-145Q187 -177 261 -193T399 -210ZM549 341Q609 341 671 354T787 395Q785 504 766 579T715 701T639 769T542 790Q498 790 461 776T397 734T355 662T340 561Q340 500 355
458T398 390T464 353T549 341Z" />
<glyph unicode=":" glyph-name="colon" horiz-adv-x="599" d="M165 267H434V0H165V267ZM165 900H434V633H165V900Z" />
<glyph unicode=";" glyph-name="semicolon" horiz-adv-x="649" d="M202 267H479L263 -411H10L202 267ZM193 900H462V633H193V900Z" />
<glyph unicode="&lt;" glyph-name="less" horiz-adv-x="1080" d="M114 639L966 1023V806L338 539V535L966 268V51L114 435V639Z" />
<glyph unicode="=" glyph-name="equal" horiz-adv-x="1080" d="M966 619H114V810H966V619ZM966 234H114V425H966V234Z" />
<glyph unicode="&gt;" glyph-name="greater" horiz-adv-x="1080" d="M966 435L114 51V268L742 535V539L114 806V1023L966 639V435Z" />
<glyph unicode="?" glyph-name="question" horiz-adv-x="920" d="M830 1026Q830 967 817 924T782 848T732 791T672 746Q637 722 602 700T539 651T494 586T476 496V480H253Q252 489 252 502T251 524Q251 599 270 650T320 739T388 802T461 852Q486 869 508 885T548
922T575 966T585 1021Q585 1088 536 1128T383 1169Q306 1169 232 1150T100 1105V1298Q130 1312 167 1324T245 1344T328 1358T411 1363Q510 1363 588 1340T719 1272T801 1166T830 1026ZM235 267H504V0H235V267Z" />
<glyph unicode="@" glyph-name="at" horiz-adv-x="2098" d="M1260 125Q1241 103 1212 81T1145 40T1064 11T970 0Q903 0 847 21T749 80T684 173T661 296Q661 371 688 429T763 528T879 590T1029 612Q1096 612 1144 604T1227 587V624Q1227 656 1216 686T1181 739T1118
776T1023 790Q954 790 886 775T738 729V905Q767 919 803 930T879 950T963 964T1049 969Q1150 969 1225 945T1351 877T1426 774T1452 646V256Q1452 234 1454 216T1464 185T1485 165T1518 158Q1565 158 1606 186T1677 265T1724 391T1742 557Q1742 719 1688 840T1542
1042T1326 1163T1063 1203Q876 1203 742 1142T523 977T397 741T356 463Q356 309 402 178T540 -50T772 -201T1097 -256Q1180 -256 1258 -248T1407 -225T1536 -194T1640 -157V-317Q1595 -335 1533 -352T1398 -383T1247 -405T1091 -413Q962 -413 845 -388T627 -312T443
-188T302 -18T212 197T180 454Q180 656 242 823T419 1111T697 1297T1064 1363Q1251 1363 1407 1306T1677 1144T1854 893T1918 569Q1918 431 1885 325T1793 147T1654 37T1478 0Q1429 0 1394 9T1334 34T1292 74T1264 125H1260ZM1227 418Q1195 425 1155 431T1069 438Q987
438 939 406T890 305Q890 273 901 250T930 211T974 189T1026 181Q1060 181 1090 190T1146 213T1192 244T1227 277V418Z" />
<glyph unicode="A" glyph-name="A" horiz-adv-x="1346" d="M926 341H422L291 0H30L561 1338H785L1316 0H1057L926 341ZM672 1016Q602 806 547 665L501 546H847L801 665Q746 807 676 1016H672Z" />
<glyph unicode="B" glyph-name="B" horiz-adv-x="1276" d="M1129 982Q1129 895 1090 823T961 702V698Q1011 681 1052 655T1123 592T1169 509T1186 406Q1186 357 1171 301T1116 193T1012 96T848 26Q823 20 794 15T728 7T648 2T549 0H160V1338H625Q774 1338 865
1308Q933 1286 983 1251T1065 1172T1113 1080T1129 982ZM405 582V205H565Q629 205 675 208T754 220Q805 231 839 249T894 291T924 343T933 404Q933 460 902 502T805 565Q776 574 737 578T637 582H405ZM626 787Q726 787 775 807Q830 830 853 870T877 962Q877 1015
850 1056T758 1118Q731 1126 695 1129T606 1133H405V787H626Z" />
<glyph unicode="C" glyph-name="C" horiz-adv-x="1197" d="M811 1156Q711 1156 627 1123T482 1027T387 872T353 660Q353 542 384 453T473 303T614 213T804 182Q880 182 959 194T1107 229V18Q1037 -2 956 -13T788 -25Q618 -25 489 23T274 160T144 372T100 645Q100
798 146 929T280 1156T499 1307T797 1363Q882 1363 958 1352T1095 1319V1111Q1015 1136 946 1146T811 1156Z" />
<glyph unicode="D" glyph-name="D" horiz-adv-x="1411" d="M160 0V1338H514Q561 1338 609 1335T704 1326T793 1312T872 1291Q979 1257 1061 1199T1198 1062T1282 886T1311 674Q1311 566 1287 472T1214 299T1091 162T914 64Q829 32 721 16T478 0H160ZM506 205Q721
205 842 264Q949 317 1004 418T1059 676Q1059 758 1041 824T989 941T907 1030T797 1091Q740 1113 670 1123T513 1133H405V205H506Z" />
<glyph unicode="E" glyph-name="E" horiz-adv-x="1163" d="M405 205H1063V0H160V1338H1027V1133H405V787H939V582H405V205Z" />
<glyph unicode="F" glyph-name="F" horiz-adv-x="1067" d="M405 0H160V1338H1012V1133H405V787H924V582H405V0Z" />
<glyph unicode="G" glyph-name="G" horiz-adv-x="1377" d="M992 511H692V716H1237V41Q1207 30 1161 18T1057 -3T938 -19T817 -25Q637 -25 503 23T279 160T145 369T100 638Q100 742 123 836T192 1011T303 1157T451 1268T634 1338T848 1363Q949 1363 1040 1349T1189
1313V1105Q1111 1130 1032 1143T871 1156Q762 1156 667 1124T503 1028T393 871T353 656Q354 419 477 301T826 182Q868 182 913 186T992 198V511Z" />
<glyph unicode="H" glyph-name="H" horiz-adv-x="1430" d="M405 787H1025V1338H1270V0H1025V582H405V0H160V1338H405V787Z" />
<glyph unicode="I" glyph-name="I" horiz-adv-x="565" d="M160 0V1338H405V0H160Z" />
<glyph unicode="J" glyph-name="J" horiz-adv-x="824" d="M424 1338H669V349Q669 283 660 236T631 152Q606 104 568 71T482 16T379 -15T265 -25Q204 -25 147 -15T50 11V220Q94 202 144 192T243 182Q338 182 381 226T424 356V1338Z" />
<glyph unicode="K" glyph-name="K" horiz-adv-x="1294" d="M160 0V1338H405V729H409L914 1338H1218L660 675L1264 0H950L409 604H405V0H160Z" />
<glyph unicode="L" glyph-name="L" horiz-adv-x="1101" d="M405 1338V205H1031V0H160V1338H405Z" />
<glyph unicode="M" glyph-name="M" horiz-adv-x="1692" d="M848 359Q892 517 957 698L1188 1338H1532V0H1287V678Q1287 827 1299 1024H1290Q1273 967 1250 896T1202 756L925 0H767L490 756Q465 825 442 896T402 1024H393Q405 839 405 679V0H160V1338H502L733 701Q791
542 842 359H848Z" />
<glyph unicode="N" glyph-name="N" horiz-adv-x="1490" d="M857 716Q1001 511 1091 352H1097Q1085 613 1085 732V1338H1330V0H1073L637 616Q522 776 399 987H393Q405 741 405 606V0H160V1338H417L857 716Z" />
<glyph unicode="O" glyph-name="O" horiz-adv-x="1504" d="M1151 669Q1151 791 1121 882T1038 1035T912 1126T752 1156Q665 1156 592 1126T466 1035T383 883T353 669Q353 547 383 456T466 304T592 213T752 182Q839 182 912 212T1038 303T1121 455T1151 669ZM1404
669Q1404 516 1361 389T1234 169T1029 26T752 -25Q597 -25 476 26T271 169T144 388T100 669Q100 822 143 949T270 1169T475 1312T752 1363Q907 1363 1028 1312T1233 1169T1360 950T1404 669Z" />
<glyph unicode="P" glyph-name="P" horiz-adv-x="1230" d="M530 518Q497 518 465 519T405 523V0H160V1338H546Q643 1338 715 1330T845 1304Q982 1262 1056 1170T1130 936Q1130 839 1090 762T973 630T785 547T530 518ZM405 729Q426 726 458 725T526 723Q625 723
692 739T800 783T859 852T877 941Q877 1000 850 1043T756 1110Q721 1122 670 1127T543 1133H405V729Z" />
<glyph unicode="Q" glyph-name="Q" horiz-adv-x="1557" d="M1151 669Q1151 791 1121 882T1038 1035T912 1126T752 1156Q665 1156 592 1126T466 1035T383 883T353 669Q353 547 383 456T466 304T592 213T752 182Q839 182 912 212T1038 303T1121 455T1151 669ZM1178
171Q1203 178 1235 184T1301 194T1370 200T1438 202H1457V-11Q1404 -6 1329 -3T1170 0Q1107 0 1057 -3T957 -9T852 -16T745 -19Q588 -19 468 31T266 172T142 389T100 669Q100 822 143 949T270 1169T475 1312T752 1363Q907 1363 1028 1312T1233 1170T1360 954T1404
679Q1404 601 1389 527T1346 389T1274 270T1176 174L1178 171Z" />
<glyph unicode="R" glyph-name="R" horiz-adv-x="1286" d="M1150 936Q1150 796 1073 699T833 554V550L1231 0H937L573 518H405V0H160V1338H567Q668 1338 755 1327T904 1292Q1022 1247 1086 1159T1150 936ZM526 723Q610 723 668 730T767 753Q841 781 869 829T898
941Q898 995 876 1036T799 1102Q764 1118 711 1125T580 1133H405V723H526Z" />
<glyph unicode="S" glyph-name="S" horiz-adv-x="1182" d="M818 384Q818 435 793 466T725 518T629 550T516 575Q438 592 367 615T242 680T156 786T124 946Q124 1052 161 1130T261 1260T410 1337T603 1363Q710 1363 818 1342T1004 1288V1078Q900 1119 805 1137T625
1156Q504 1156 439 1112T373 980Q373 929 394 896T453 842T538 807T640 783Q725 765 802 742T940 676T1035 567T1070 394Q1070 286 1030 207T917 77T738 0T508 -25Q399 -25 294 -4T118 57V264Q217 221 311 202T505 182Q563 182 619 191T719 224T791 286T818 384Z"
/>
<glyph unicode="T" glyph-name="T" horiz-adv-x="1168" d="M707 0H462V1133H30V1338H1138V1133H707V0Z" />
<glyph unicode="U" glyph-name="U" horiz-adv-x="1434" d="M714 -25Q609 -25 525 -5T377 54T268 148T196 274Q174 330 165 398T155 550V1338H400V572Q400 430 434 350Q472 261 545 222T717 182Q816 182 889 221T1000 350Q1034 430 1034 572V1338H1279V550Q1279
466 1270 398T1238 274Q1211 204 1166 149T1055 55T904 -4T714 -25Z" />
<glyph unicode="V" glyph-name="V" horiz-adv-x="1306" d="M656 327Q693 436 709 482T779 673L1027 1338H1286L763 0H543L20 1338H281L529 673Q582 529 598 483T652 327H656Z" />
<glyph unicode="W" glyph-name="W" horiz-adv-x="1864" d="M929 986Q890 799 839 600L689 0H445L20 1338H281L442 805Q515 554 560 351H566Q610 569 668 798L806 1338H1058L1196 798Q1254 571 1298 351H1304Q1359 591 1422 805L1583 1338H1844L1419 0H1175L1025
600Q974 803 935 986H929Z" />
<glyph unicode="X" glyph-name="X" horiz-adv-x="1302" d="M513 1063Q610 922 649 861H654Q708 945 789 1062L980 1338H1262L796 680L1282 0H1004L795 299Q718 409 653 507H649Q581 405 507 299L298 0H20L506 680L40 1338H322L513 1063Z" />
<glyph unicode="Y" glyph-name="Y" horiz-adv-x="1299" d="M651 762L1007 1338H1279L772 539V0H527V539L20 1338H292L648 762H651Z" />
<glyph unicode="Z" glyph-name="Z" horiz-adv-x="1231" d="M1132 1338V1205L416 205H1141V0H90V132L807 1133H108V1338H1132Z" />
<glyph unicode="[" glyph-name="bracketleft" horiz-adv-x="646" d="M140 1338H586V1165H345V-126H586V-300H140V1338Z" />
<glyph unicode="\" glyph-name="backslash" horiz-adv-x="603" d="M371 -249L-9 1338H199L579 -249H371Z" />
<glyph unicode="]" glyph-name="bracketright" horiz-adv-x="646" d="M506 -300H60V-126H301V1165H60V1338H506V-300Z" />
<glyph unicode="^" glyph-name="asciicircum" horiz-adv-x="1080" d="M642 1363L1026 511H809L542 1139H538L271 511H54L438 1363H642Z" />
<glyph unicode="_" glyph-name="underscore" horiz-adv-x="1000" d="M0 -142H1000V-275H0V-142Z" />
<glyph unicode="`" glyph-name="grave" horiz-adv-x="800" d="M458 1473L577 1124H393L228 1473H458Z" />
<glyph unicode="a" glyph-name="a" horiz-adv-x="1054" d="M700 103H696Q676 82 648 60T584 19T504 -13T409 -25Q340 -25 280 -4T177 58T110 156T85 285Q85 363 113 425T193 530T315 595T472 618Q535 618 588 610T681 591V630Q681 664 670 695T633 751T566 790T466
805Q394 805 322 789T166 741V926Q239 958 321 975T493 993Q599 993 678 967T811 896T891 788T918 653V288Q918 192 920 123T924 0H710L700 103ZM681 413Q647 421 603 427T514 434Q427 434 377 400T326 294Q326 261 337 237T368 196T414 172T469 164Q505 164 537
173T596 197T644 230T681 265V413Z" />
<glyph unicode="b" glyph-name="b" horiz-adv-x="1141" d="M1061 501Q1061 370 1023 269T924 103T785 7T630 -25Q575 -25 531 -12T454 22T399 64T363 103H359L336 0H140Q142 43 143 106T145 227V1448H382V1045Q382 1002 382 966T380 909H382Q405 925 432 940T491
967T560 986T638 993Q719 993 795 964T931 874T1026 719T1061 501ZM816 489Q816 580 794 645T737 745T663 792T586 804Q534 804 480 783T382 727V263Q396 247 416 230T462 198T518 174T582 164Q640 164 683 187T756 254T801 356T816 489Z" />
<glyph unicode="c" glyph-name="c" horiz-adv-x="903" d="M828 21Q783 2 718 -11T581 -25Q476 -25 385 5T226 96T119 250T80 469Q80 609 125 709T241 871T402 963T579 993Q644 993 704 982T813 950V757Q769 776 720 787T613 799Q556 799 504 782T412 726T349 626T325
475Q325 411 343 355T395 258T483 194T610 169Q675 169 728 182T828 214V21Z" />
<glyph unicode="d" glyph-name="d" horiz-adv-x="1142" d="M547 164Q582 164 613 173T673 197T722 230T759 265V725Q717 759 665 781T555 804Q518 804 478 789T404 738T348 638T325 475Q325 329 381 247T547 164ZM80 465Q80 592 115 691T210 858T349 959T511 993Q550
993 585 986T651 967T709 940T759 909H761Q760 929 760 965T759 1045V1448H996V288Q996 192 998 123T1002 0H788L778 103H774Q753 78 724 54T659 13T581 -15T488 -25Q409 -25 337 3T207 89T115 242T80 465Z" />
<glyph unicode="e" glyph-name="e" horiz-adv-x="1050" d="M629 166Q698 166 773 180T925 220V31Q879 11 784 -7T587 -25Q484 -25 392 1T230 87T121 240T80 468Q80 600 118 699T220 863T366 960T537 993Q629 993 706 965T840 877T928 723T960 499Q959 449 957
414H322Q327 347 352 300T417 223T512 180T629 166ZM534 808Q489 808 454 792T394 747T353 680T333 599H714Q714 642 703 680T669 746T613 791T534 808Z" />
<glyph unicode="f" glyph-name="f" horiz-adv-x="672" d="M737 1256Q698 1266 657 1272T578 1279Q538 1279 507 1270T455 1238T422 1181T411 1096V969H680V774H411V0H174V774H10V969H174V1084Q174 1186 202 1259T282 1380T402 1450T552 1473Q602 1473 651 1465T737
1444V1256Z" />
<glyph unicode="g" glyph-name="g" horiz-adv-x="1126" d="M759 -25Q759 -5 759 24T762 74H760Q738 56 710 39T647 7T572 -16T488 -25Q411 -25 338 2T207 89T115 242T80 466Q80 597 115 695T210 860T345 959T503 993Q592 993 661 956T774 860H778L788 969H996V-18Q996
-103 982 -164T941 -272Q909 -327 860 -368T747 -436T607 -476T446 -490Q398 -490 352 -487T266 -477T192 -462T135 -444V-251Q201 -273 273 -284T426 -296Q585 -296 672 -235T759 -48V-25ZM547 164Q583 164 615 173T674 196T722 227T759 261V694Q721 739 665 769T546
800Q524 800 500 795T450 775T403 738T363 678T336 592T325 476Q325 403 339 346T381 248T450 186T547 164Z" />
<glyph unicode="h" glyph-name="h" horiz-adv-x="1146" d="M377 1053Q377 978 375 930T366 842H370Q391 870 421 898T488 946T571 980T674 993Q722 993 767 984T852 954T924 902T979 826Q998 788 1007 740T1016 623V0H779V591Q779 636 775 664T761 714Q740 758
701 776T612 794Q543 793 485 761T377 667V0H140V1448H377V1053Z" />
<glyph unicode="i" glyph-name="i" horiz-adv-x="509" d="M136 969H373V0H136V969ZM130 1448H379V1191H130V1448Z" />
<glyph unicode="j" glyph-name="j" horiz-adv-x="538" d="M402 -127Q402 -263 359 -337Q314 -415 227 -452T21 -490Q-32 -490 -74 -484T-155 -467V-273Q-123 -282 -84 -289T-8 -296Q40 -296 76 -285T134 -247Q151 -227 158 -192T165 -108V969H402V-127ZM159 1448H408V1191H159V1448Z"
/>
<glyph unicode="k" glyph-name="k" horiz-adv-x="1057" d="M140 1448H377V576H382L751 969H1044L619 514L1047 0H760L381 451H377V0H140V1448Z" />
<glyph unicode="l" glyph-name="l" horiz-adv-x="517" d="M140 0V1448H377V0H140Z" />
<glyph unicode="m" glyph-name="m" horiz-adv-x="1745" d="M1378 590Q1378 621 1376 648T1369 695Q1358 739 1326 766T1236 794Q1205 794 1172 785T1107 760T1045 720T991 667V0H754V590Q754 621 752 648T745 695Q734 739 703 766T612 794Q581 794 548 785T483
760T421 720T367 667V0H130V969H326L348 834H352Q373 864 405 893T477 944T566 979T669 993Q765 993 841 951T958 818H962Q990 857 1024 889T1101 944T1191 980T1295 993Q1399 992 1469 950T1578 833Q1588 814 1595 792T1606 741T1613 679T1615 601V0H1378V590Z"
/>
<glyph unicode="n" glyph-name="n" horiz-adv-x="1136" d="M348 834H352Q373 864 405 893T478 944T568 979T674 993Q727 993 776 981T867 944T939 878T989 781Q999 750 1002 714T1006 629V0H769V592Q769 631 766 659T755 708Q737 754 701 774T612 794Q543 794
480 762T367 667V0H130V969H326L348 834Z" />
<glyph unicode="o" glyph-name="o" horiz-adv-x="1134" d="M809 484Q809 561 791 620T741 719T664 779T566 799Q514 799 470 779T393 719T343 620T325 484Q325 407 343 348T393 250T470 190T568 169Q621 169 665 189T741 249T791 348T809 484ZM1054 484Q1054 370
1020 276T923 115T769 12T568 -25Q454 -25 364 11T210 115T114 276T80 484Q80 598 114 692T211 853T365 956T566 993Q680 993 770 957T924 853T1020 692T1054 484Z" />
<glyph unicode="p" glyph-name="p" horiz-adv-x="1126" d="M584 803Q522 802 466 773T367 693V261Q382 244 403 227T450 196T507 173T573 164Q628 164 671 187T742 254T786 356T801 489Q801 567 786 626T742 724T673 783T584 803ZM615 -25Q537 -25 474 3T368 74H364Q365
54 366 18T367 -62V-465H130V969H338L348 860H352Q396 918 465 955T625 993Q704 993 780 964T916 873T1010 719T1046 498Q1046 363 1008 265T908 102T771 6T615 -25Z" />
<glyph unicode="q" glyph-name="q" horiz-adv-x="1126" d="M547 164Q583 164 615 173T674 196T722 227T759 261V691Q722 736 669 769T553 804Q517 804 478 790T403 738T347 636T325 476Q325 403 339 346T381 248T450 186T547 164ZM778 860L788 969H996V-465H759V-62Q759
-19 760 17T762 74H760Q738 56 710 39T647 7T573 -16T488 -25Q411 -25 338 2T207 89T115 243T80 466Q80 594 115 694T210 860T345 959T503 993Q590 993 659 957T774 860H778Z" />
<glyph unicode="r" glyph-name="r" horiz-adv-x="716" d="M706 781H686Q577 781 495 749T367 649V0H130V969H326L348 834H352Q394 908 467 950T644 993Q680 993 706 989V781Z" />
<glyph unicode="s" glyph-name="s" horiz-adv-x="868" d="M559 281Q559 312 542 332T495 365T429 389T350 409Q298 423 250 441T166 490T108 565T86 677Q86 758 115 817T193 916T308 974T447 993Q536 993 614 979T755 941V748Q722 759 686 768T612 785T537 796T467
801Q425 801 396 793T349 772T323 741T315 704Q315 671 332 650T381 616T446 595T512 578Q562 566 612 549T702 502T767 423T793 299Q793 217 762 156T676 55T543 -5T372 -25Q280 -25 207 -11T85 26V217Q163 188 229 178T352 167Q396 167 434 173T499 194T543 229T559
281Z" />
<glyph unicode="t" glyph-name="t" horiz-adv-x="777" d="M722 1Q682 -11 627 -18T523 -25Q401 -25 324 14T214 128Q191 181 191 272V774H10V969H191V1240H428V969H708V774H428V303Q428 247 445 220Q475 174 564 174Q605 174 645 180T722 197V1Z" />
<glyph unicode="u" glyph-name="u" horiz-adv-x="1116" d="M558 -25Q412 -25 316 24T171 158Q145 203 133 257T120 377V969H357V402Q357 353 364 318T385 256Q409 212 453 191T558 169Q622 169 667 193T736 266Q759 313 759 397V969H996V377Q996 259 955 178Q932
132 896 95T810 31T698 -10T558 -25Z" />
<glyph unicode="v" glyph-name="v" horiz-adv-x="1006" d="M996 969L621 0H386L10 969H260L395 599Q453 443 501 287H505Q547 422 609 593L744 969H996Z" />
<glyph unicode="w" glyph-name="w" horiz-adv-x="1534" d="M765 706Q737 561 699 425L582 0H349L10 969H260L385 563Q428 422 461 290H465Q493 418 532 563L643 969H893L1002 563Q1037 434 1069 290H1073Q1107 425 1149 563L1274 969H1524L1185 0H952L835 425Q795
568 769 706H765Z" />
<glyph unicode="x" glyph-name="x" horiz-adv-x="1068" d="M532 337L282 0H10L393 494L33 969H312L538 649L768 969H1048L678 495L1058 0H781L532 337Z" />
<glyph unicode="y" glyph-name="y" horiz-adv-x="1052" d="M10 969H264L409 618Q491 418 525 322H529Q554 397 635 600L785 969H1042L418 -465H184L406 54L10 969Z" />
<glyph unicode="z" glyph-name="z" horiz-adv-x="958" d="M554 774H81V969H858V822L378 195H893V0H65V134L554 774Z" />
<glyph unicode="{" glyph-name="braceleft" horiz-adv-x="625" d="M303 517Q317 514 342 500T391 461T432 398T450 309Q450 258 438 217T408 140Q387 96 368 57T349 -21Q349 -91 400 -121T552 -152H580V-325H522Q431 -325 359 -306T237 -250T161 -161T134 -43Q134
-11 140 17T157 71T181 121T207 169Q225 204 239 240T253 320Q253 354 244 377T214 413T160 432T80 438V600Q127 600 160 605T213 624T243 661T253 718Q253 765 236 807T196 890Q173 933 154 979T134 1081Q134 1146 160 1198T236 1287T358 1343T522 1363H580V1190H552Q449
1190 399 1159T349 1059Q349 1028 360 999T388 938Q399 917 410 894T430 846T444 791T450 729Q450 678 433 641T391 578T342 538T303 521V517Z" />
<glyph unicode="|" glyph-name="bar" horiz-adv-x="485" d="M345 -465H140V1448H345V-465Z" />
<glyph unicode="}" glyph-name="braceright" horiz-adv-x="625" d="M322 521Q308 524 283 538T234 577T193 640T175 729Q175 762 180 791T195 845T215 894T237 938Q253 970 264 999T276 1059Q276 1128 226 1159T73 1190H45V1363H103Q194 1363 266 1344T388 1288T464
1199T491 1081Q491 1025 472 979T429 890Q407 849 390 807T372 718Q372 684 381 661T411 625T465 606T545 600V438Q498 438 465 433T412 414T382 377T372 320Q372 277 386 241T418 169Q431 145 444 121T467 71T484 17T491 -43Q491 -108 465 -160T389 -249T267 -305T103
-325H45V-152H73Q173 -152 224 -122T276 -21Q276 18 257 57T217 140Q200 175 188 216T175 309Q175 360 192 397T234 460T283 500T322 517V521Z" />
<glyph unicode="~" glyph-name="asciitilde" horiz-adv-x="1080" d="M85 445Q133 533 200 576T361 620Q412 620 459 605T550 571Q594 552 634 537T712 522Q764 522 794 544T850 608L994 503Q946 415 879 372T718 328Q675 328 634 339T555 366Q504 388 457 407T367
426Q315 426 285 403T229 340L85 445Z" />
</font>
</defs>
</svg>
