<?xml version="1.0" standalone="no"?> <!DOCTYPE svg PUBLIC "-//W3C//DTD SVG 1.0//EN" "http://www.w3.org/TR/2001/REC-SVG-20010904/DTD/svg10.dtd" > <svg xmlns="http://www.w3.org/2000/svg" width="100%" height="100%">
<defs >
<font horiz-adv-x="1207" ><font-face
    font-family="Rodano"
    units-per-em="2048"
    panose-1="2 0 6 0 0 0 0 0 0 0"
    ascent="1912"
    descent="-795"
    alphabetic="0" />
<missing-glyph horiz-adv-x="1024" d="M100 0V1434H924V0H100ZM150 50H874V1384H150V50ZM325 1148Q356 1176 383 1191Q436 1221 495 1221Q587 1221 643 1174T699 1046Q699 997 676 948T589 818Q526 738 490 686T454 587Q454 549 478 454H446Q411 551 411 602Q411
678 492 820T574 1037Q574 1094 541 1127T450 1160Q412 1160 381 1143Q355 1128 325 1103V1148ZM389 334L446 392Q457 402 466 402Q476 402 488 391L544 331Q553 320 553 311Q553 300 543 289L487 227Q473 213 466 213Q455 213 446 223L385 294Q378 303 378 312Q378
322 389 334Z" />
<glyph unicode=" " glyph-name="space" horiz-adv-x="508" />
<glyph unicode="!" glyph-name="exclam" horiz-adv-x="467" d="M233 258V258Q288 258 327 219T366 125Q366 70 327 31T233 -8Q178 -8 140 31T101 125Q101 180 139 219T233 258ZM233 420V420H178L100 1435H367L289 420H233Z" />
<glyph unicode="&quot;" glyph-name="quotedbl" horiz-adv-x="779" d="M230 1609V1609Q284 1609 322 1571T360 1479Q360 1474 360 1470Q360 1470 359 1469Q364 1340 304 1248T141 1140Q264 1231 271 1355Q251 1348 230 1348Q176 1348 138 1386T100 1479Q100 1532
138 1570T230 1609ZM545 1609V1609Q599 1609 637 1571T675 1479Q675 1474 675 1470Q675 1470 674 1469Q679 1340 619 1248T456 1140Q579 1231 586 1355Q566 1348 545 1348Q491 1348 453 1386T415 1479Q415 1532 453 1570T545 1609Z" />
<glyph unicode="#" glyph-name="numbersign" horiz-adv-x="1302" d="M579 859L494 569H736L822 859H579ZM656 1434H749L608 957H850L992 1434H1084L943 957H1202L1173 860H914L831 570H1110L1080 472H800L660 0H568L707 472H467L325 0H233L373 472H100L130 570H401L487
860H192L221 957H516L656 1434Z" />
<glyph unicode="$" glyph-name="dollar" horiz-adv-x="1267" d="M1159 379V379Q1167 196 1040 100T685 -3V-168H575V-3Q395 5 276 73T100 244L192 319Q285 188 397 151T575 115V571Q465 632 343 713Q334 719 322 726Q263 756 186 833T100 1053Q102 1227 230 1322T575
1428V1594H685V1427Q849 1412 959 1345T1123 1182L1031 1107Q951 1222 854 1263T685 1309V982V845Q798 791 916 713Q925 707 935 700Q1005 658 1075 584T1159 379ZM338 1115V1115Q338 1046 404 997T575 899V1198V1308Q338 1265 338 1115ZM685 116V116Q761 125 814
172T868 292Q868 356 818 407T685 507V116Z" />
<glyph unicode="%" glyph-name="percent" horiz-adv-x="1538" d="M1037 1590V1590H1176L484 -232H344L1037 1590ZM669 1135V1135V1135Q669 1135 669 1135Q669 1135 669 1135Q669 1135 669 1135Q669 1135 669 1135Q669 1135 669 1135V1135Q666 978 585 874T385
770Q265 770 183 875T100 1135Q100 1288 182 1393T385 1499V1499Q504 1499 585 1395T669 1135ZM385 852V852Q427 852 447 901T474 1016T480 1135Q480 1187 473 1252T444 1368T385 1418V1418Q344 1418 324 1368T296 1252T289 1135Q289 1085 296 1018T324 902T385
852ZM1438 209V209V209Q1438 209 1438 209Q1438 209 1438 209Q1438 209 1438 209Q1438 209 1438 209Q1438 209 1438 209V209Q1435 52 1354 -52T1154 -156Q1034 -156 952 -51T869 209Q869 362 951 467T1154 573V573Q1273 573 1354 469T1438 209ZM1154 -74V-74Q1196
-74 1216 -25T1243 90T1249 209Q1249 261 1242 326T1213 442T1154 492V492Q1113 492 1093 442T1065 326T1058 209Q1058 159 1065 92T1093 -24T1154 -74Z" />
<glyph unicode="&amp;" glyph-name="ampersand" horiz-adv-x="1385" d="M1285 17V17L951 16Q951 16 925 52Q772 -10 521 16Q337 38 219 143T100 417Q100 560 189 655T418 781Q334 906 316 948Q297 992 292 1021T286 1098Q287 1228 387 1329T627 1429Q765 1426
841 1330T923 1098Q927 1002 862 905T685 767Q877 516 1057 294Q1094 350 1092 418Q1092 418 1103 418T1130 418T1162 418T1189 418T1200 418Q1200 418 1200 418Q1200 418 1200 417Q1200 306 1131 203Q1200 118 1242 68T1285 17ZM627 1328V1328Q567 1328 518 1270T483
1098Q489 1066 516 1017T569 928T607 872Q609 869 610 868Q614 861 617 856T624 847T629 840T633 835T636 831T638 829T639 828T640 828T640 828T640 828T640 828Q733 865 772 943T802 1098Q789 1204 741 1266T627 1328ZM522 124V124Q692 85 857 147Q775 262 665
419T459 718Q307 632 310 417Q313 291 374 218T522 124Z" />
<glyph unicode="&apos;" glyph-name="quotesingle" horiz-adv-x="464" d="M230 1609V1609Q284 1609 322 1571T360 1479Q360 1474 360 1470Q360 1470 359 1469Q364 1340 304 1248T141 1140Q264 1231 271 1355Q251 1348 230 1348Q176 1348 138 1386T100 1479Q100
1532 138 1570T230 1609Z" />
<glyph unicode="(" glyph-name="parenleft" horiz-adv-x="648" d="M100 601Q102 878 199 1131T468 1573H548Q376 1331 318 1135Q239 835 239 596Q229 382 318 68Q376 -128 548 -370H468Q297 -181 200 71T100 601Z" />
<glyph unicode=")" glyph-name="parenright" horiz-adv-x="648" d="M548 601Q546 324 449 72T180 -370H100Q272 -128 330 68Q419 382 409 596Q409 835 330 1135Q272 1331 100 1573H180Q351 1384 448 1131T548 601Z" />
<glyph unicode="*" glyph-name="asterisk" horiz-adv-x="623" d="M341 1219L305 1345L267 1219L125 1279L221 1387L100 1402L155 1531L259 1476L229 1604H386L354 1469L468 1531L523 1402L390 1385L485 1279L341 1219Z" />
<glyph unicode="+" glyph-name="plus" horiz-adv-x="1040" d="M450 647H100V787H450V1156L451 1157H590V787H939L940 786V647H590V277H450V647Z" />
<glyph unicode="," glyph-name="comma" horiz-adv-x="464" d="M230 253V253Q284 253 322 215T360 123Q360 118 360 114Q360 114 359 113Q364 -16 304 -108T141 -216Q264 -125 271 -1Q251 -8 230 -8Q176 -8 138 30T100 123Q100 176 138 214T230 253Z" />
<glyph unicode="-" glyph-name="hyphen" horiz-adv-x="737" d="M100 409V549H637V410L100 409Z" />
<glyph unicode="." glyph-name="period" horiz-adv-x="460" d="M230 0Q284 0 322 38T360 130Q360 184 322 222T230 260Q176 260 138 222T100 130Q100 76 138 38T230 0Z" />
<glyph unicode="/" glyph-name="slash" horiz-adv-x="1032" d="M793 1590V1590H932L240 -232H100L793 1590Z" />
<glyph unicode="0" glyph-name="zero" horiz-adv-x="1346" d="M673 1423V1423Q928 1423 1087 1217T1246 709Q1246 409 1087 202T673 -5Q419 -5 260 202T100 709Q100 1010 259 1216T673 1423ZM673 107V107Q812 118 897 301T985 709Q981 981 891 1145T673 1313Q542
1309 454 1145T362 709Q366 474 454 295T673 107Z" />
<glyph unicode="1" glyph-name="one" horiz-adv-x="646" d="M530 793V793L532 756L546 -8H263V466Q262 484 262 502Q263 510 263 517Q263 519 263 520V931Q263 931 263 931Q263 931 263 931Q263 1025 238 1087T182 1186T125 1238T100 1253Q100 1253 171 1278T341
1342T527 1421Q527 1421 527 1409T527 1379V936L530 793Z" />
<glyph unicode="2" glyph-name="two" horiz-adv-x="1260" d="M917 720V720Q902 714 887 708Q682 630 489 521T282 267H1154L1103 3H830H100V267V267Q106 409 159 518T343 719Q500 821 644 886Q764 942 843 994T922 1122Q922 1205 843 1260T637 1318Q608 1320 537
1311T381 1259T229 1114L136 1189Q195 1294 319 1363T632 1436V1437Q633 1437 634 1437Q636 1436 637 1436Q638 1436 639 1437Q640 1437 642 1437Q642 1437 643 1437Q643 1437 644 1437Q644 1436 644 1436Q878 1433 1017 1338T1160 1060Q1157 953 1110 882T1007
771T917 720Z" />
<glyph unicode="3" glyph-name="three" horiz-adv-x="1160" d="M859 707V707Q928 668 984 597T1053 394Q1060 253 996 165T825 35T608 -6H574V-5Q394 4 276 72T100 242L192 317Q259 217 336 174T477 121T571 113Q572 113 574 113Q590 115 605 119Q607 119 608
120Q749 158 792 270T800 494T667 641Q639 650 596 651T516 646L499 763Q534 763 568 766Q702 788 757 906T778 1147T608 1301Q590 1304 574 1304Q541 1307 477 1299T337 1247T192 1101L100 1176Q157 1283 278 1355T605 1424H608Q774 1424 892 1323T1013 1029Q1001
789 859 707Z" />
<glyph unicode="4" glyph-name="four" horiz-adv-x="1256" d="M986 1434V1434V613H1156V457H986V6H944H723V457H100V613L723 1434H986ZM723 613V613V1243L236 613H723Z" />
<glyph unicode="5" glyph-name="five" horiz-adv-x="1216" d="M912 856V856Q990 809 1051 701T1116 455Q1107 220 960 107T646 -7H612V-8Q611 -8 610 -8Q610 -8 609 -8Q609 -8 609 -8Q608 -8 608 -8V-7Q608 -8 608 -8Q607 -8 607 -8Q606 -8 606 -8Q413 -8 287
62T100 240L193 315Q261 215 345 172T502 119T605 111Q607 111 608 111Q609 111 609 111Q610 111 611 112V112Q620 112 633 114T655 118Q767 153 807 301T817 604T688 809Q605 841 516 831T350 799Q332 794 315 790V789H311L201 762L205 789L243 1169L267 1422H1095V1422L1075
1158H352L324 882Q455 947 620 946Q821 924 912 856Z" />
<glyph unicode="6" glyph-name="six" horiz-adv-x="1248" d="M629 891V891Q812 899 927 840T1095 675T1148 444Q1148 256 998 127T629 -3Q411 -3 271 129T111 508Q100 689 128 820T196 1029Q312 1248 552 1346T1037 1405L1033 1294Q1030 1294 1027 1294Q774 1325
586 1221T376 789Q433 846 499 867T629 891ZM629 108V108Q739 108 812 192T886 444Q886 585 812 682T629 779Q546 779 484 735T391 600Q372 521 372 444Q372 312 420 238T544 128Q585 108 629 108Z" />
<glyph unicode="7" glyph-name="seven" horiz-adv-x="1190" d="M1090 1423V1423V1170V1170Q1090 1157 1012 976T834 569T656 167T578 -8L379 -7L966 1160H100L151 1423H389H1090Z" />
<glyph unicode="8" glyph-name="eight" horiz-adv-x="1263" d="M903 706V706Q913 700 926 691Q981 660 1048 595T1140 413Q1163 233 1026 113T657 -7L623 -8Q423 -8 264 96T105 353Q105 574 381 681Q362 693 342 707Q314 725 260 768T160 878T105 1031Q100 1129
149 1217T309 1363T595 1420L623 1421Q822 1421 981 1318T1140 1064Q1140 952 1055 872T840 750Q849 744 863 734T890 715Q898 710 903 706ZM372 1107V1107Q372 1032 439 982T613 878Q657 855 706 828Q771 861 824 931T877 1064Q877 1137 813 1215T649 1308Q649
1308 637 1309T609 1310T579 1307Q535 1300 488 1278T406 1213T372 1107V1107ZM658 104V104Q722 104 798 158T874 292Q874 374 790 436T581 563Q550 580 517 599Q456 563 413 489T370 353Q370 278 434 198T623 103L658 104Z" />
<glyph unicode="9" glyph-name="nine" horiz-adv-x="1248" d="M618 1416V1416Q837 1416 977 1285T1137 905Q1148 724 1120 594T1052 384Q936 166 696 68T211 9L215 119Q218 119 221 119Q474 88 662 192T872 624Q815 567 749 546T618 523Q435 514 321 573T153 738T100
969Q100 1157 250 1286T618 1416ZM857 814V814Q876 893 876 969Q876 1102 828 1176T704 1285Q663 1305 618 1305Q509 1305 436 1221T362 969Q362 829 436 732T618 635Q702 635 764 678T857 814Z" />
<glyph unicode=":" glyph-name="colon" horiz-adv-x="460" d="M230 187Q284 187 322 225T360 317Q360 371 322 409T230 447Q176 447 138 409T100 317Q100 263 138 225T230 187ZM230 710Q284 710 322 748T360 840Q360 894 322 932T230 970Q176 970 138 932T100
840Q100 786 138 748T230 710Z" />
<glyph unicode=";" glyph-name="semicolon" horiz-adv-x="464" d="M230 710Q284 710 322 748T360 840Q360 894 322 932T230 970Q176 970 138 932T100 840Q100 786 138 748T230 710ZM230 445V445Q284 445 322 407T360 315Q360 310 360 306Q360 306 359 305Q364
176 304 84T141 -24Q264 67 271 191Q251 184 230 184Q176 184 138 222T100 315Q100 368 138 406T230 445Z" />
<glyph unicode="&lt;" glyph-name="less" horiz-adv-x="1040" d="M940 1074L315 715L940 360V193L100 674V757L940 1241V1074Z" />
<glyph unicode="=" glyph-name="equal" horiz-adv-x="1040" d="M100 631H940V491H100V631ZM100 943H940V803H100V943Z" />
<glyph unicode="&gt;" glyph-name="greater" horiz-adv-x="1040" d="M100 1241L940 757V674L100 193V360L725 715L100 1074V1241Z" />
<glyph unicode="?" glyph-name="question" horiz-adv-x="1144" d="M973 1253V1253Q1013 1194 1028 1097T1018 922Q984 835 919 778T764 666Q732 646 698 622Q648 589 619 559T575 504T556 462T551 434T552 424H436Q436 424 434 458T440 544T482 656T585 768Q712
863 744 964T751 1160Q728 1247 663 1281T517 1316Q377 1316 294 1238T210 969L100 968Q100 994 101 1025T105 1081Q112 1173 201 1291T514 1432Q515 1432 515 1432Q515 1432 515 1432V1432Q678 1440 795 1389T973 1253ZM499 258V258Q551 258 588 221T626 130Q626
77 589 40T499 3Q446 3 409 40T371 130Q371 183 408 220T499 258Z" />
<glyph unicode="@" glyph-name="at" horiz-adv-x="1637" d="M819 1433V1433Q1017 1433 1180 1336T1440 1076T1537 714Q1537 562 1472 468T1309 336T1111 313T934 394Q922 402 913 415Q906 424 902 436Q886 417 860 398T796 372Q748 364 686 370T568 415Q526 448
512 486T498 566V572Q498 600 514 645T582 730Q629 762 690 770T809 767Q846 758 868 747T892 734Q892 783 880 841T835 943T743 987Q695 987 667 975T624 944T605 907T600 877T601 864L527 872Q521 933 571 991T757 1061Q763 1061 771 1061T786 1061T799 1060T804
1059Q915 1049 993 955T1071 716Q1071 716 1071 716V478Q1072 455 1084 441T1111 421Q1235 386 1315 470T1395 714Q1395 953 1226 1122T819 1291Q580 1291 411 1122T242 714Q242 476 411 307T819 138Q955 138 1072 196L1153 78Q999 -4 819 -4Q621 -4 458 93T197
353T100 714Q100 913 197 1076T457 1336T819 1433ZM893 495V495Q893 524 893 565Q893 578 893 592L892 603Q892 643 880 670T826 709Q772 722 726 693T675 598Q675 514 717 474T812 444Q846 452 864 466T893 495Z" />
<glyph unicode="A" glyph-name="A" horiz-adv-x="1381" d="M553 1436V1436H828L1331 -7H1050L918 372H299L167 -7H50L553 1436ZM337 482V482H880L608 1261L337 482Z" />
<glyph unicode="B" glyph-name="B" horiz-adv-x="1200" d="M316 -7V-7H274H50V1431H166H316H562Q726 1431 827 1378T974 1237T1021 1049Q1021 964 989 889T884 761Q1024 714 1087 614T1150 396Q1150 296 1106 204T961 52T693 -7H316ZM612 678V678H600Q582 678
563 678H316V107H613Q731 107 787 159T859 279T876 396Q876 446 861 512T790 628T612 678ZM482 1321V1321L316 1320V792H484Q601 792 657 835T730 939T747 1049Q747 1099 732 1162T660 1273T482 1321Z" />
<glyph unicode="C" glyph-name="C" horiz-adv-x="1250" d="M706 -7V-7V-7Q706 -7 705 -7Q705 -7 705 -7Q705 -7 704 -7Q704 -7 703 -7Q703 -7 702 -7Q701 -7 701 -7Q701 -7 701 -7Q407 3 229 207T50 712Q50 1013 228 1217T701 1431Q701 1431 701 1431Q701 1431
702 1431Q703 1431 703 1431Q704 1431 704 1431Q704 1431 705 1431Q705 1431 705 1431Q706 1431 706 1431V1431Q899 1428 1023 1338T1200 1100L1092 1081Q1027 1200 948 1251T802 1312T711 1320Q708 1320 706 1320Q706 1320 706 1320Q706 1320 706 1320Q521 1320
422 1153T321 712Q322 558 370 421T504 195T706 106Q708 106 711 106Q737 103 803 113T948 174T1092 343L1200 325Q1148 176 1024 86T706 -7Z" />
<glyph unicode="D" glyph-name="D" horiz-adv-x="1257" d="M1207 712V712Q1207 511 1133 348T912 89T550 -7H191H50V1431H182V1431H550Q778 1431 923 1336T1137 1077T1207 712ZM315 106V106H433Q619 106 728 198T885 429T933 712Q933 892 894 1029T749 1243T440
1320H315V106Z" />
<glyph unicode="E" glyph-name="E" horiz-adv-x="1006" d="M315 -7V-7H244H50V1433H244H315H956L935 1323H315V771H750V661H315V104H935L914 -7H315Z" />
<glyph unicode="F" glyph-name="F" horiz-adv-x="1006" d="M750 661V661H315V-7H50V1433H244H315H956L935 1323H315V771H750V661Z" />
<glyph unicode="G" glyph-name="G" horiz-adv-x="1250" d="M935 165V165V709H1200V325Q1133 131 946 42Q843 -5 706 -7V-7Q705 -7 705 -7Q705 -7 705 -7Q704 -7 704 -7Q703 -7 703 -7Q702 -7 702 -7Q701 -7 701 -7Q701 -7 701 -7Q407 3 229 207T50 712Q50 1013
228 1217T701 1431Q701 1431 701 1431Q701 1431 702 1431Q702 1431 703 1431Q703 1431 704 1431Q704 1431 705 1431Q705 1431 705 1431Q706 1431 706 1431V1431Q899 1428 1023 1338T1200 1100L1092 1081Q1027 1200 948 1251T802 1312T710 1320Q708 1320 706 1320Q706
1320 706 1320Q706 1320 706 1320Q521 1320 422 1153T321 712Q322 558 369 421T503 195T706 106V106V106Q708 106 711 106Q735 103 797 112T935 165Z" />
<glyph unicode="H" glyph-name="H" horiz-adv-x="1375" d="M1060 771V771V1435H1325V-3H1060V661H315V-7H50V1431H315V771H1060Z" />
<glyph unicode="I" glyph-name="I" horiz-adv-x="365" d="M50 -9V-9V1429H315V-9H50Z" />
<glyph unicode="J" glyph-name="J" horiz-adv-x="909" d="M595 1429V1429H859V711Q859 711 859 711Q859 711 859 710Q859 379 717 185T278 -9Q203 -9 152 5T76 33T50 47V176Q50 176 80 159T159 125T258 108Q323 108 392 137T515 232Q571 306 583 415T592 660Q592
685 592 710Q592 711 592 711Q592 711 592 711L595 1429Z" />
<glyph unicode="K" glyph-name="K" horiz-adv-x="1244" d="M788 1032V1032L666 894L1194 -3H898L478 683L317 502V392Q317 209 317 190V43V-1H51V406Q50 433 51 460V475Q50 501 51 528V1434H317V975V847V668L547 926V926L744 1149L996 1434H1144L788 1032Z" />
<glyph unicode="L" glyph-name="L" horiz-adv-x="1057" d="M316 1429V1429V99H1007L986 -11H316H50V1429H316Z" />
<glyph unicode="M" glyph-name="M" horiz-adv-x="1508" d="M1192 1439V1439H1458V7H1192V1147L730 -2H612L160 1156V943V-1H50V1120V1439H160H319L751 401L1192 1439Z" />
<glyph unicode="N" glyph-name="N" horiz-adv-x="1177" d="M160 1439L1016 423V1439H1127V-1H1016L160 1001V-1H50V1439H160Z" />
<glyph unicode="O" glyph-name="O" horiz-adv-x="1412" d="M706 -4V-4Q415 -4 233 204T50 715Q50 1017 232 1225T706 1434Q998 1434 1180 1226T1362 715Q1362 413 1180 205T706 -4ZM706 1323V1323Q554 1319 441 1154T322 715Q328 479 442 299T707 109Q867 120
976 305T1089 715Q1083 989 969 1154T706 1323Z" />
<glyph unicode="P" glyph-name="P" horiz-adv-x="1200" d="M670 1429V1429Q834 1429 940 1373T1098 1227T1150 1037Q1150 936 1100 844T944 693T671 634H315V-9H50V1429H295H315H670ZM592 748V748Q709 748 770 799T854 919T876 1037Q876 1086 856 1152T774 1269T590
1319L315 1318V748H592Z" />
<glyph unicode="Q" glyph-name="Q" horiz-adv-x="1412" d="M1362 710V710Q1362 314 1059 94Q1114 1 1269 -130L1196 -219Q1017 -65 957 40Q843 -9 707 -9Q415 -9 233 199T50 710Q50 1012 232 1220T707 1429Q998 1429 1180 1221T1362 710ZM944 252V252Q1083 448
1089 710Q1083 984 969 1149T706 1318Q554 1314 441 1149T322 710Q328 474 442 294T707 104Q792 105 865 167Q809 238 689 337L762 426Q883 326 944 252Z" />
<glyph unicode="R" glyph-name="R" horiz-adv-x="1362" d="M1140 330V330Q1145 301 1146 268Q1149 218 1159 170T1203 88T1312 55V-1H1272Q1109 -1 1033 36T923 152T862 353Q842 439 749 534T502 644H316V-1H50V1439H295H316H670Q834 1439 940 1383T1098 1237T1150
1047Q1150 932 1085 830T879 676Q1017 608 1087 495Q1114 447 1125 401T1140 334Q1140 331 1140 330ZM591 1329V1329L316 1328V758H592Q710 758 771 809T854 929T876 1047Q876 1096 856 1162T774 1279T591 1329Z" />
<glyph unicode="S" glyph-name="S" horiz-adv-x="1175" d="M1117 379V379Q1125 190 990 93T616 -7V-7Q616 -7 616 -7T616 -7Q615 -7 614 -7Q613 -7 612 -7V-7Q608 -7 602 -7Q594 -7 584 -7T567 -7T559 -7Q365 -7 238 64T50 243L143 318Q211 218 294 174T449 121T553
113Q555 113 556 112Q560 112 565 112Q578 112 612 112Q696 112 760 161T824 291Q824 375 741 438T529 572Q418 633 295 715Q286 721 274 728Q214 758 136 835T50 1057Q53 1241 193 1337T570 1436Q570 1436 570 1436Q570 1436 571 1436Q571 1436 572 1436Q573 1436
575 1436Q576 1436 577 1436Q578 1436 579 1436Q581 1436 582 1436V1436Q772 1432 897 1363T1081 1187L988 1112Q919 1213 835 1257T678 1310T576 1317Q450 1314 370 1259T290 1120Q290 1043 370 990T572 881Q716 816 872 715Q881 708 891 702Q962 660 1033 586T1117
379Z" />
<glyph unicode="T" glyph-name="T" horiz-adv-x="1216" d="M741 1439V1439H1145L1166 1328H741V-4H475V1328H70L50 1439H475H741Z" />
<glyph unicode="U" glyph-name="U" horiz-adv-x="1172" d="M1009 1434V1434H1122V506V506Q1122 273 1008 147T725 3Q710 2 682 1T626 0T591 1Q584 2 578 4Q309 25 180 214T50 718Q50 718 50 718Q50 718 50 718V1433H315L317 718Q317 718 317 718Q317 718 317 718Q317
692 317 667Q314 533 326 424T394 242Q490 132 610 121Q610 121 610 121Q611 121 611 121Q666 116 696 119T742 125Q743 126 744 126Q795 135 835 157T915 229Q1007 342 1007 506V506L1009 1434Z" />
<glyph unicode="V" glyph-name="V" horiz-adv-x="1382" d="M773 169V169L1215 1436H1332L829 -7H553L50 1436H331L773 169Z" />
<glyph unicode="W" glyph-name="W" horiz-adv-x="2023" d="M1414 169V169L1856 1436H1973L1470 -7H1194L1012 517L829 -7H553L50 1436H332L773 169L953 685L1094 1089L1152 921L1414 169Z" />
<glyph unicode="X" glyph-name="X" horiz-adv-x="1304" d="M1221 1434V1434L766 782L1254 -4H936L599 543L218 -4H83L536 645L50 1434H362L703 885L1086 1434H1221Z" />
<glyph unicode="Y" glyph-name="Y" horiz-adv-x="1323" d="M1138 1429V1429H1273L798 778V-6H532V677L50 1429H362L728 872L1138 1429Z" />
<glyph unicode="Z" glyph-name="Z" horiz-adv-x="1253" d="M1009 1434V1434H1203L412 107H1203L1180 -4H347H243H50L845 1324H148L129 1434H911H1009Z" />
<glyph unicode="[" glyph-name="bracketleft" horiz-adv-x="611" d="M348 -11V-11Q357 -34 382 -59T437 -105T489 -140T511 -154Q220 -250 117 -30Q103 12 102 91T102 261Q105 346 105 694T102 1128Q100 1218 101 1297T117 1418Q220 1639 511 1542Q511 1542 489
1529T438 1494T383 1448T348 1400V1400Q336 1365 335 1294T336 1139Q339 1049 339 695T336 250Q334 165 335 95T348 -11Z" />
<glyph unicode="\" glyph-name="backslash" horiz-adv-x="1032" d="M240 1590L932 -232H792L100 1590H240V1590Z" />
<glyph unicode="]" glyph-name="bracketright" horiz-adv-x="611" d="M263 -11Q275 24 276 94T275 250Q272 340 272 694T275 1139Q277 1223 276 1294T263 1400V1400Q254 1423 228 1447T173 1493T122 1528T100 1542Q391 1639 494 1418Q508 1376 509 1297T508 1128Q506
1043 506 695T508 261Q511 171 510 92T494 -30Q391 -250 100 -154Q100 -154 121 -140T172 -105T228 -59T263 -11V-11Z" />
<glyph unicode="^" glyph-name="asciicircum" horiz-adv-x="782" d="M100 1081L332 1436H450L682 1081H624L391 1297L158 1081H100Z" />
<glyph unicode="_" glyph-name="underscore" horiz-adv-x="913" d="M100 -178V-38H813V-177L100 -178Z" />
<glyph unicode="`" glyph-name="grave" horiz-adv-x="599" d="M499 1080H430L100 1283L208 1377L499 1080Z" />
<glyph unicode="a" glyph-name="a" horiz-adv-x="1370" d="M643 380V380Q581 400 507 415T317 434L166 1H50L549 1430H822L1320 1H1042L928 327Q746 342 643 380ZM604 1256V1256L357 547Q567 531 676 490Q761 460 887 445L604 1256Z" />
<glyph unicode="b" glyph-name="b" horiz-adv-x="1200" d="M316 -7V-7H274H50V1431H166H316H562Q726 1431 827 1378T974 1237T1021 1049Q1021 964 989 889T884 761Q1024 714 1087 614T1150 396Q1150 296 1106 204T961 52T693 -7H316ZM612 678V678H600Q582 678
563 678H316V107H613Q731 107 787 159T859 279T876 396Q876 446 861 512T790 628T612 678ZM482 1321V1321L316 1320V792H484Q601 792 657 835T730 939T747 1049Q747 1099 732 1162T660 1273T482 1321Z" />
<glyph unicode="c" glyph-name="c" horiz-adv-x="1250" d="M706 -7V-7V-7Q706 -7 705 -7Q705 -7 705 -7Q705 -7 704 -7Q704 -7 703 -7Q703 -7 702 -7Q701 -7 701 -7Q701 -7 701 -7Q407 3 229 207T50 712Q50 1013 228 1217T701 1431Q701 1431 701 1431Q701 1431
702 1431Q703 1431 703 1431Q704 1431 704 1431Q704 1431 705 1431Q705 1431 705 1431Q706 1431 706 1431V1431Q899 1428 1023 1338T1200 1100L1092 1081Q1027 1200 948 1251T802 1312T711 1320Q708 1320 706 1320Q706 1320 706 1320Q706 1320 706 1320Q521 1320
422 1153T321 712Q322 558 370 421T504 195T706 106Q708 106 711 106Q737 103 803 113T948 174T1092 343L1200 325Q1148 176 1024 86T706 -7Z" />
<glyph unicode="d" glyph-name="d" horiz-adv-x="1257" d="M1207 712V712Q1207 511 1133 348T912 89T550 -7H191H50V1431H182V1431H550Q778 1431 923 1336T1137 1077T1207 712ZM315 106V106H433Q619 106 728 198T885 429T933 712Q933 892 894 1029T749 1243T440
1320H315V106Z" />
<glyph unicode="e" glyph-name="e" horiz-adv-x="1006" d="M315 -7V-7H244H50V1433H244H315H956L935 1323H315V771H750V661H315V104H935L914 -7H315Z" />
<glyph unicode="f" glyph-name="f" horiz-adv-x="1006" d="M750 661V661H315V-7H50V1433H244H315H956L935 1323H315V771H750V661Z" />
<glyph unicode="g" glyph-name="g" horiz-adv-x="1250" d="M935 165V165V709H1200V325Q1133 131 946 42Q843 -5 706 -7V-7Q705 -7 705 -7Q705 -7 705 -7Q704 -7 704 -7Q703 -7 703 -7Q702 -7 702 -7Q701 -7 701 -7Q701 -7 701 -7Q407 3 229 207T50 712Q50 1013
228 1217T701 1431Q701 1431 701 1431Q701 1431 702 1431Q702 1431 703 1431Q703 1431 704 1431Q704 1431 705 1431Q705 1431 705 1431Q706 1431 706 1431V1431Q899 1428 1023 1338T1200 1100L1092 1081Q1027 1200 948 1251T802 1312T710 1320Q708 1320 706 1320Q706
1320 706 1320Q706 1320 706 1320Q521 1320 422 1153T321 712Q322 558 369 421T503 195T706 106V106V106Q708 106 711 106Q735 103 797 112T935 165Z" />
<glyph unicode="h" glyph-name="h" horiz-adv-x="1370" d="M1056 719V719V1433H1320V0H1056V604Q920 604 837 621T688 660Q621 682 539 698T314 714V-3H50V1429H314V829Q469 829 559 811T721 770Q784 749 858 734T1056 719Z" />
<glyph unicode="i" glyph-name="i" horiz-adv-x="365" d="M50 -9V-9V1429H315V-9H50Z" />
<glyph unicode="j" glyph-name="j" horiz-adv-x="909" d="M595 1429V1429H859V711Q859 711 859 711Q859 711 859 710Q859 379 717 185T278 -9Q203 -9 152 5T76 33T50 47V176Q50 176 80 159T159 125T258 108Q323 108 392 137T515 232Q571 306 583 415T592 660Q592
685 592 710Q592 711 592 711Q592 711 592 711L595 1429Z" />
<glyph unicode="k" glyph-name="k" horiz-adv-x="1249" d="M52 404V404Q50 432 52 458V473Q50 499 52 526V1431H316V973V845V666L546 924V924L742 1147L994 1431H1141L786 1030L590 808V808L576 792Q756 782 882 686T1074 476Q1146 353 1201 232Q1288 26 1447
-178Q1546 -293 1659 -339T1875 -390T2043 -383T2110 -370Q2110 -370 2056 -398T1907 -448T1682 -460T1401 -373Q1199 -263 1077 -98T868 235Q781 403 686 518T443 643L316 500V390Q316 207 316 188V42V-2H52V404Z" />
<glyph unicode="l" glyph-name="l" horiz-adv-x="1057" d="M316 1429V1429V99H1007L986 -11H316H50V1429H316Z" />
<glyph unicode="m" glyph-name="m" horiz-adv-x="1508" d="M1192 1439V1439H1458V7H1192V1147L730 -2H612L160 1156V943V-1H50V1120V1439H160H319L751 401L1192 1439Z" />
<glyph unicode="n" glyph-name="n" horiz-adv-x="1174" d="M1348 -178V-178Q1447 -293 1560 -339T1776 -390T1945 -383T2011 -370Q2011 -370 1958 -398T1808 -449T1583 -460T1301 -373Q1139 -286 1052 -172T904 65Q844 183 763 293L718 345Q698 367 675 396L160
997V936V-2H50V1112V1435H160V1435L972 472V472Q995 448 1014 422L1015 421V478V1435H1125V307V230Q1144 190 1162 149Q1225 -17 1348 -178Z" />
<glyph unicode="o" glyph-name="o" horiz-adv-x="1399" d="M700 5V5Q411 5 231 211T50 717Q50 1016 230 1222T700 1429Q989 1429 1169 1223T1349 717Q1349 417 1169 211T700 5ZM700 116V116Q837 123 938 267T1070 605Q835 615 699 660Q623 681 536 696T319 714Q325
481 438 303T700 116ZM700 1319V1319Q566 1316 461 1184T325 828Q587 818 728 770Q800 750 881 736T1079 719Q1072 989 959 1152T700 1319Z" />
<glyph unicode="p" glyph-name="p" horiz-adv-x="1200" d="M670 1429V1429Q834 1429 940 1373T1098 1227T1150 1037Q1150 936 1100 844T944 693T671 634H315V-9H50V1429H295H315H670ZM592 748V748Q709 748 770 799T854 919T876 1037Q876 1086 856 1152T774 1269T590
1319L315 1318V748H592Z" />
<glyph unicode="q" glyph-name="q" horiz-adv-x="1409" d="M1359 711V711Q1359 410 1178 202T705 -6Q414 -6 232 202T50 711Q50 1013 232 1220T705 1428Q996 1428 1177 1221T1359 711ZM321 711V711Q327 476 441 296T705 106Q865 118 973 302T1086 712Q1080 985
966 1149T705 1318Q553 1314 440 1149T321 711ZM1365 -345V-345Q1542 -540 1742 -600T2126 -622T2438 -475Q2438 -475 2375 -543T2189 -683T1883 -774T1463 -709Q1341 -659 1253 -563T1089 -357Q1026 -267 958 -187T804 -57T601 -6Q785 -6 986 -78T1365 -345Z"
/>
<glyph unicode="r" glyph-name="r" horiz-adv-x="1361" d="M315 640V640V-2H50V1433H294H315H668Q832 1433 937 1377T1094 1232T1146 1042Q1146 924 1076 819T855 665Q988 586 1073 475Q1181 328 1245 168Q1314 -8 1446 -179Q1545 -294 1658 -340T1874 -391T2042
-384T2108 -371Q2108 -371 2055 -399T1905 -449T1681 -461T1400 -374Q1196 -263 1082 -95T893 242Q821 401 740 512T524 640H315ZM589 1323V1323L315 1322V754H590Q707 754 768 805T851 925T873 1042Q873 1091 853 1157T771 1273T589 1323Z" />
<glyph unicode="s" glyph-name="s" horiz-adv-x="1175" d="M1117 379V379Q1125 190 990 93T616 -7V-7Q616 -7 616 -7T616 -7Q615 -7 614 -7Q613 -7 612 -7V-7Q608 -7 602 -7Q594 -7 584 -7T567 -7T559 -7Q365 -7 238 64T50 243L143 318Q211 218 294 174T449 121T553
113Q555 113 556 112Q560 112 565 112Q578 112 612 112Q696 112 760 161T824 291Q824 375 741 438T529 572Q418 633 295 715Q286 721 274 728Q214 758 136 835T50 1057Q53 1241 193 1337T570 1436Q570 1436 570 1436Q570 1436 571 1436Q571 1436 572 1436Q573 1436
575 1436Q576 1436 577 1436Q578 1436 579 1436Q581 1436 582 1436V1436Q772 1432 897 1363T1081 1187L988 1112Q919 1213 835 1257T678 1310T576 1317Q450 1314 370 1259T290 1120Q290 1043 370 990T572 881Q716 816 872 715Q881 708 891 702Q962 660 1033 586T1117
379Z" />
<glyph unicode="t" glyph-name="t" horiz-adv-x="1216" d="M741 1439V1439H1145L1166 1328H741V-4H475V1328H70L50 1439H475H741Z" />
<glyph unicode="u" glyph-name="u" horiz-adv-x="1172" d="M1009 1432V1432H1122V506V506Q1122 273 1008 147T725 3Q710 2 682 1T626 0T591 1Q584 2 578 4Q309 25 180 213T50 717Q50 717 50 717Q50 717 50 717V1431H315L317 717Q317 717 317 717Q317 717 317 717Q317
691 317 667Q314 532 326 424T394 241Q490 132 610 121Q610 121 610 121Q611 121 611 121Q666 116 696 118T742 125Q743 125 744 125Q795 135 835 157T915 229Q1007 341 1007 506V506L1009 1432Z" />
<glyph unicode="v" glyph-name="v" horiz-adv-x="1382" d="M773 169V169L1215 1436H1332L829 -7H553L50 1436H331L773 169Z" />
<glyph unicode="w" glyph-name="w" horiz-adv-x="2023" d="M1414 169V169L1856 1436H1973L1470 -7H1194L1012 517L829 -7H553L50 1436H332L773 169L953 685L1094 1089L1152 921L1414 169Z" />
<glyph unicode="x" glyph-name="x" horiz-adv-x="1313" d="M1472 -353V-353Q1572 -467 1686 -514T1902 -565T2071 -558T2137 -545Q2137 -545 2084 -573T1934 -623T1708 -635T1426 -548Q1231 -444 1122 -303T926 5Q911 32 895 60L763 275Q762 276 761 277Q760 279
759 280Q748 297 737 316L599 540L218 -7H83L536 643L50 1432H362L703 882L1087 1432H1221L767 780L964 462Q1002 413 1037 361Q1057 332 1077 304Q1219 99 1282 -43Q1346 -192 1472 -353Z" />
<glyph unicode="y" glyph-name="y" horiz-adv-x="1323" d="M1138 1429V1429H1273L798 778V-6H532V677L50 1429H362L728 872L1138 1429Z" />
<glyph unicode="z" glyph-name="z" horiz-adv-x="1253" d="M1009 1434V1434H1203L412 107H1203L1180 -4H347H243H50L845 1324H148L129 1434H911H1009Z" />
<glyph unicode="{" glyph-name="braceleft" horiz-adv-x="783" d="M520 -11V-11Q529 -34 554 -59T609 -105T661 -140T683 -154Q392 -250 289 -30Q275 12 274 91T274 261Q277 346 276 416T263 522V522Q253 545 228 576T173 636T122 686T100 706Q100 706 121 722T172
764T227 816T263 867Q275 902 276 972T274 1128Q272 1218 273 1297T289 1418Q392 1639 683 1542Q683 1542 661 1529T610 1494T555 1448T520 1400V1400Q508 1365 507 1294T508 1139Q511 1049 510 970T494 848Q452 741 348 700Q452 649 494 540Q508 498 509 419T508
250Q506 165 507 95T520 -11Z" />
<glyph unicode="|" glyph-name="bar" horiz-adv-x="360" d="M100 1577H260V-418H100V1577Z" />
<glyph unicode="}" glyph-name="braceright" horiz-adv-x="783" d="M263 -11Q275 24 276 94T274 250Q272 340 273 419T289 540Q331 649 434 700Q331 741 289 848Q275 890 274 969T274 1139Q277 1223 276 1294T263 1400V1400Q253 1423 228 1447T173 1493T122 1528T100
1542Q391 1639 494 1418Q508 1376 509 1297T508 1128Q506 1043 507 973T520 867Q529 843 554 816T609 764T661 723T683 706Q683 706 661 686T610 637T555 576T520 522V522Q508 487 507 417T508 261Q511 171 510 92T494 -30Q391 -250 100 -154Q100 -154 121 -140T172
-105T227 -59T263 -11V-11Z" />
<glyph unicode="~" glyph-name="asciitilde" horiz-adv-x="774" d="M674 776Q654 703 606 645T475 586Q425 586 361 617T238 648Q179 648 100 586Q119 662 168 719T287 776Q343 776 408 748T532 720Q592 720 674 776Z" />
</font>
</defs>
</svg>
